<svg width="74" height="55" viewBox="0 0 74 55" fill="none" xmlns="http://www.w3.org/2000/svg">
<path d="M73.5061 27.918C73.2637 27.4682 72.9385 27.0747 72.55 26.7611C72.1614 26.4475 71.7174 26.2202 71.2444 26.0926C68.0306 25.262 64.6895 25.1486 61.4323 25.7597C62.8249 19.3341 61.9301 14.2743 61.0295 11.3291C60.7502 10.409 60.159 9.63193 59.3707 9.14864C58.5823 8.66535 57.6531 8.51034 56.7632 8.71368C53.5969 9.46398 50.6028 10.8756 47.9551 12.8665C46.0858 8.09606 43.07 3.93043 39.2092 0.786231C38.5724 0.276003 37.7965 0 36.9988 0C36.2011 0 35.4251 0.276003 34.7883 0.786231C30.9276 3.93038 27.9119 8.09604 26.0428 12.8665C23.3949 10.8756 20.4007 9.46396 17.2343 8.71368C16.3444 8.51045 15.4151 8.66559 14.6267 9.14899C13.8384 9.6324 13.2473 10.4096 12.968 11.3298C12.0674 14.2743 11.1729 19.3344 12.5653 25.7597C9.30807 25.1488 5.96697 25.2621 2.75314 26.0926C2.28085 26.2219 1.83756 26.4498 1.44921 26.7632C1.06086 27.0765 0.735242 27.469 0.491401 27.9176C0.247561 28.3662 0.0903934 28.8619 0.0290924 29.3758C-0.0322086 29.8897 0.00358741 30.4114 0.134387 30.9104C1.16999 34.8411 4.35102 42.3222 14.026 48.2548C23.7394 54.2106 32.36 54.2125 36.9939 54.2125L36.9975 54.2129H37L37.0037 54.2125C41.6375 54.2125 50.2585 54.2106 59.9715 48.2548C69.6465 42.3222 72.8275 34.8414 73.8632 30.9104C73.9958 30.4116 74.0325 29.8896 73.9712 29.3755C73.9098 28.8613 73.7516 28.3656 73.5061 27.9177V27.918ZM57.2739 11.2627C57.5704 11.1955 57.8799 11.2474 58.1424 11.4085C58.405 11.5695 58.602 11.8282 58.6954 12.1345C59.5878 15.0516 60.4654 20.275 58.5948 26.9696C58.57 27.0382 58.5506 27.1088 58.5368 27.1808C57.7859 29.753 56.7604 32.2255 55.4803 34.5501C52.8427 39.3174 49.3421 43.4827 45.1808 46.8057C44.924 47.0113 44.6694 47.209 44.4161 47.4025C47.5149 43.0695 50.4959 36.4159 50.4959 26.8462C50.5242 22.9583 49.9676 19.0905 48.8471 15.3891C51.3505 13.3978 54.2222 11.9916 57.2736 11.2627H57.2739ZM36.2561 2.8752C36.47 2.70368 36.7307 2.61087 36.9987 2.61081C37.2667 2.61075 37.5275 2.70345 37.7414 2.87487C40.8384 5.33003 48.0419 12.5808 48.0419 26.8462C48.0419 34.3579 46.0906 40.8291 42.2424 46.0811C40.7652 48.125 38.9959 49.9108 36.9988 51.3736C35.0016 49.9108 33.2323 48.125 31.7551 46.0811C27.9069 40.8294 25.9557 34.3579 25.9557 26.8462C25.9557 12.5808 33.1591 5.33003 36.2564 2.8752H36.2561ZM15.3021 12.1348C15.3955 11.8283 15.5926 11.5694 15.8553 11.4083C16.118 11.2472 16.4276 11.1953 16.7242 11.2627C19.7755 11.9916 22.6472 13.3979 25.1504 15.3891C24.03 19.0906 23.4734 22.9583 23.5016 26.8462C23.5016 36.4159 26.4827 43.0695 29.5815 47.4025C29.3281 47.209 29.0735 47.0116 28.8167 46.8057C24.6554 43.4827 21.1549 39.3174 18.5172 34.5501C17.232 32.2164 16.2036 29.7336 15.4521 27.1505C15.4399 27.09 15.4236 27.0306 15.4033 26.9726C13.5318 20.2763 14.4098 15.0519 15.3021 12.1348ZM2.49823 30.2083C2.45553 30.0436 2.44408 29.8714 2.46456 29.7019C2.48504 29.5324 2.53703 29.3689 2.61752 29.2209C2.698 29.0729 2.80538 28.9434 2.9334 28.8399C3.06142 28.7363 3.20755 28.6609 3.36327 28.6178C5.49459 28.0373 8.91244 27.5799 13.2978 28.5572C14.0866 31.0972 15.1238 33.5425 16.3923 35.853C20.3433 43.1207 26.1032 48.347 30.7612 51.3427C25.2895 50.7696 19.9992 48.9463 15.2533 45.9977C6.33234 40.5277 3.4326 33.7572 2.49823 30.2083ZM71.4999 30.2083C70.5656 33.7572 67.6658 40.5274 58.7448 45.9977C53.9989 48.9463 48.7086 50.7696 43.2369 51.3427C47.895 48.3473 53.6549 43.1207 57.6058 35.853C58.8743 33.5426 59.9115 31.0974 60.7004 28.5576C65.0854 27.5799 68.5036 28.0373 70.6352 28.6178C70.7909 28.6609 70.937 28.7363 71.0651 28.8399C71.1931 28.9434 71.3005 29.0729 71.3809 29.2209C71.4614 29.3689 71.5134 29.5324 71.5339 29.7019C71.5544 29.8714 71.5429 30.0436 71.5002 30.2083H71.4999Z" fill="#DAA520"/>
</svg>
